<svg id="Layer_1" data-name="Layer 1" xmlns="http://www.w3.org/2000/svg" width="7.68in" height="3.26in" viewBox="0 0 553.25 234.37"><path d="M131,168.05A100.27,100.27,0,1,0,231.23,268.32,100.38,100.38,0,0,0,131,168.05" transform="translate(-30.69 -168.05)"/><path d="M131,170.67a97.66,97.66,0,1,0,97.66,97.66A97.76,97.76,0,0,0,131,170.67" transform="translate(-30.69 -168.05)" fill="#008996"/><path d="M131,355a86.63,86.63,0,1,0-86.62-86.63A86.63,86.63,0,0,0,131,355" transform="translate(-30.69 -168.05)" fill="#fff"/><path d="M131,356a87.69,87.69,0,1,1,87.69-87.69A87.78,87.78,0,0,1,131,356m0-173.25a85.57,85.57,0,1,0,85.57,85.56A85.66,85.66,0,0,0,131,182.76" transform="translate(-30.69 -168.05)"/><path d="M64.41,227.67a78.09,78.09,0,0,0-3.95,74L132.2,277.4,86,258.42l12.17-9.08Z" transform="translate(-30.69 -168.05)" fill="#008996"/><path d="M59.91,303l-.41-.85a79.15,79.15,0,0,1,4-75l.56-.93,36,23.09-11.89,8.87,47.09,19.34Zm4.85-73.82A77,77,0,0,0,61,300.36l68.16-23.06L83.86,258.69l12.44-9.28Z" transform="translate(-30.69 -168.05)"/><path d="M207.54,253.58A78,78,0,0,1,91.07,335.33L178,271.62,95.07,256.77l47-30.53,42.49,24.34,8.25-7Z" transform="translate(-30.69 -168.05)" fill="#008996"/><path d="M131,347.36a79,79,0,0,1-40.44-11.12l-1.37-.82,86.22-63.19L92.24,257.34,142.06,225l42.42,24.29,8.29-7L208.5,253l.08.43a79.11,79.11,0,0,1-77.62,94M93,335.23a77,77,0,0,0,113.58-81l-13.66-9.31-8.21,7-42.58-24.39L97.89,256.2,180.62,271Z" transform="translate(-30.69 -168.05)"/><path d="M205.94,246.87A78,78,0,0,0,66.61,224.28L102.08,246l40-25.57L183.35,244l9.08-6.6Z" transform="translate(-30.69 -168.05)" fill="#fff"/><path d="M207.78,249.46l-15.34-10.78-9,6.56L142.13,221.7l-40,25.6-37-22.7.63-.92A79.06,79.06,0,0,1,207,246.58ZM68.12,224l33.95,20.82,40-25.56,41.21,23.49,9.14-6.64,11.6,8.14A76.93,76.93,0,0,0,68.12,224" transform="translate(-30.69 -168.05)"/><path d="M369.18,331.84a14.18,14.18,0,0,0-22.36,0q-4.56,5.46-4.56,14t4.62,14.1a14.21,14.21,0,0,0,22.3-.12q4.56-5.46,4.57-14t-4.57-14m-7.26,28.37a3.87,3.87,0,0,1-3.9,3,4,4,0,0,1-3.95-3.08q-1.2-3.5-1.2-14.34c0-7.16.41-12,1.25-14.39a3.88,3.88,0,0,1,3.9-3c1.93,0,3.26,1.1,4,3.29s1.13,6.91,1.13,14.13-.42,12-1.24,14.39" transform="translate(-30.69 -168.05)"/><path d="M337.61,304c-.42,0-.65.14-.7.41a3.73,3.73,0,0,0-.07.61,4.16,4.16,0,0,1-.88,2.59,3,3,0,0,1-2,1.3,20.45,20.45,0,0,0-5.25-4.19A16.81,16.81,0,0,0,321,303q-9.39,0-15.9,8.62-6.69,8.83-6.69,22.51t6.74,22.57c4.29,5.7,9.59,8.56,15.85,8.56a17.68,17.68,0,0,0,7.76-1.59,16.66,16.66,0,0,0,5.34-4.23,3.23,3.23,0,0,1,1.9,1.46,4.2,4.2,0,0,1,.85,2.38,1.89,1.89,0,0,0,.14.75.61.61,0,0,0,.63.31.86.86,0,0,0,.81-.38,1.26,1.26,0,0,0,.1-.58v-19c0-.71-.27-1.06-.82-1.06s-.86.35-.86,1.06q0,8.13-4.37,13.35A13.48,13.48,0,0,1,321.71,363q-7.08,0-9.66-6.11t-2.58-22.71q0-16.59,2.58-22.71t9.66-6.11a13.41,13.41,0,0,1,10.75,5.39,20.34,20.34,0,0,1,4.38,13.23,1.47,1.47,0,0,0,.14.72.77.77,0,0,0,.72.34c.55,0,.82-.35.82-1.06v-19a1.06,1.06,0,0,0-.24-.77.91.91,0,0,0-.67-.2" transform="translate(-30.69 -168.05)"/><path d="M414,362.52l-5.87,0V304.43c0-.81-.3-1.21-.86-1.21-.2,0-.83.08-1.88.21a23.54,23.54,0,0,1-2.84.19c-.64,0-2,0-4-.07s-3.91-.1-5.67-.16c-.59,0-.87.33-.87,1a1,1,0,0,0,.27.75.8.8,0,0,0,.6.27h5.87v57.11h-6l-5.87,0V304.43c0-.81-.29-1.21-.87-1.21-.19,0-.81.08-1.87.21a23.54,23.54,0,0,1-2.84.19c-.65,0-2,0-4-.07s-3.92-.1-5.68-.16c-.58,0-.87.33-.87,1a1,1,0,0,0,.27.75.82.82,0,0,0,.6.27h5.87v57.11h-5.87c-.58,0-.87.33-.87,1a1,1,0,0,0,.27.75.82.82,0,0,0,.6.27c1.06-.1,2-.18,2.93-.22s2.52-.07,4.86-.07H385c.94,0,2.23,0,3.9.09s3,.13,3.9.2l.07,0,.06,0c1.05-.1,2-.18,2.93-.22s2.52-.07,4.86-.07h5.54c.92,0,2.22,0,3.89.09s3,.13,3.9.2c.58,0,.86-.34.86-1a1,1,0,0,0-.27-.74.77.77,0,0,0-.59-.26" transform="translate(-30.69 -168.05)"/><path d="M440.56,342.07q0-6.93-3.21-11.07-3.57-4.62-10.25-4.62c-4.12,0-7.64,1.8-10.59,5.4s-4.62,8.42-4.62,14q0,9,4.6,14.34a13.88,13.88,0,0,0,11,5.1,13.32,13.32,0,0,0,7.25-1.88,14.27,14.27,0,0,0,5.51-7.16c0-.1.09-.32.19-.66a3.28,3.28,0,0,0,.14-.93.85.85,0,0,0-.31-.68,1.11,1.11,0,0,0-.78-.29.76.76,0,0,0-.67.36,3,3,0,0,0-.39.84,13.4,13.4,0,0,1-3.63,6,8,8,0,0,1-5.41,2.07,5.32,5.32,0,0,1-5.22-3.47q-1.68-3.75-1.68-13.61l0-3.75Zm-16.45-11.46a4,4,0,0,1,3.8-2.21,3.25,3.25,0,0,1,2.84,1.59,7.82,7.82,0,0,1,1.06,4.4,20.53,20.53,0,0,1-.81,5.46h-8.38q0-6.56,1.49-9.24" transform="translate(-30.69 -168.05)"/><path d="M510.6,342.07q0-6.93-3.22-11.07-3.57-4.62-10.25-4.62-6.15,0-10.58,5.4-4.62,5.61-4.62,14c0,6,1.52,10.75,4.6,14.34a13.87,13.87,0,0,0,11,5.1,13.32,13.32,0,0,0,7.25-1.88,14.29,14.29,0,0,0,5.52-7.16c0-.1.1-.32.19-.66a3.69,3.69,0,0,0,.14-.93.89.89,0,0,0-.31-.68,1.11,1.11,0,0,0-.78-.29.75.75,0,0,0-.68.36,2.94,2.94,0,0,0-.38.84,13.24,13.24,0,0,1-3.64,6,7.91,7.91,0,0,1-5.41,2.07,5.3,5.3,0,0,1-5.21-3.47q-1.68-3.75-1.68-13.61l.05-3.75Zm-16.45-11.46a4,4,0,0,1,3.8-2.21A3.3,3.3,0,0,1,500.8,330a8,8,0,0,1,1,4.4,20.13,20.13,0,0,1-.81,5.46h-8.37q0-6.56,1.49-9.24" transform="translate(-30.69 -168.05)"/><path d="M475.43,330.5a4.17,4.17,0,0,0,.6,5.19,4.34,4.34,0,0,0,3.11,1.19,3.83,3.83,0,0,0,3.08-1.42A5.3,5.3,0,0,0,483.4,332a5.68,5.68,0,0,0-1.92-4.26,7.17,7.17,0,0,0-5.11-1.81,6.41,6.41,0,0,0-4.77,2,8.18,8.18,0,0,0-2.15,5.95v1a15,15,0,0,0-22.13-1.21,15,15,0,0,0-4.26,11,16,16,0,0,0,2,8.05,13.07,13.07,0,0,0,5.16,5.21,10.17,10.17,0,0,0-8.51,10.35,10.8,10.8,0,0,0,1.59,5.92,9.6,9.6,0,0,0,6.52,4.27,12.24,12.24,0,0,0-6.54,3.94,9.9,9.9,0,0,0-2.42,6.61,11.75,11.75,0,0,0,4.49,9.42q4.82,4,12.76,4,8.29,0,13.73-4.71,6-5.18,6-13.9,0-8.24-3.61-12.46c-2.4-2.81-6-4.23-10.86-4.23h-9.7a14.07,14.07,0,0,1-5.71-.82,2.67,2.67,0,0,1-1.67-2.53A3.17,3.17,0,0,1,448,361a8.42,8.42,0,0,1,4.45-1.05l5.44.17a14.24,14.24,0,0,0,10.53-4.34,15.12,15.12,0,0,0,4.29-11.09,27.65,27.65,0,0,0-.54-4.57,29.63,29.63,0,0,1-.55-5.37,7.67,7.67,0,0,1,1.25-4.7,3.25,3.25,0,0,1,2.67-1.43,2.9,2.9,0,0,1,1.53.46,3.5,3.5,0,0,0-1.62,1.45m-12.62,48q6.53,0,9.13,1.67c1.74,1.12,2.62,3.21,2.62,6.27a12.62,12.62,0,0,1-4.26,9.31,16.73,16.73,0,0,1-12,4.48,12.28,12.28,0,0,1-9.25-3.57,11.29,11.29,0,0,1-3.12-8.12,10.8,10.8,0,0,1,1.76-6,10.28,10.28,0,0,1,5.16-4Zm-1.16-23.32a4.07,4.07,0,0,1-7.61.09q-.93-2.58-.93-10.64c0-5.34.31-8.87,1-10.59a3.71,3.71,0,0,1,3.8-2.58,3.64,3.64,0,0,1,3.8,2.58q.91,2.58.91,10.59t-.93,10.55" transform="translate(-30.69 -168.05)"/><path d="M420.76,220.74a4.15,4.15,0,0,0,3,1.2,4.08,4.08,0,0,0,4.13-4.19,4.42,4.42,0,0,0-.74-2.45,3.5,3.5,0,0,0-2-1.54,3.54,3.54,0,0,1,1.66-1.28,5.87,5.87,0,0,1,2.43-.55,4.06,4.06,0,0,1,3.22,1c.71.84,1.06,2.51,1.06,5.05V228.2a21.93,21.93,0,0,0-11.21,2.59,10.61,10.61,0,0,0-5.44,9.75,7.59,7.59,0,0,0,2.46,5.93,8,8,0,0,0,5.58,2.07,11,11,0,0,0,4.84-1.18,14.51,14.51,0,0,0,4.25-3.09,8.41,8.41,0,0,0,3.44,3.19,12.1,12.1,0,0,0,5,.89A9.35,9.35,0,0,0,445,248a7.41,7.41,0,0,0,3.08-1.86,1.77,1.77,0,0,0,.57-1.28,1,1,0,0,0-.36-.79,1.36,1.36,0,0,0-.89-.31,1,1,0,0,0-.63.33c-.35.46-.7.95-1.08,1.46a1.68,1.68,0,0,1-1.41.76,1.16,1.16,0,0,1-1.11-.58,4.47,4.47,0,0,1-.34-2.11v-22.4c0-3.85-1.2-6.75-3.61-8.74q-3.27-2.69-9-2.69a12.88,12.88,0,0,0-7.39,2.24,6.66,6.66,0,0,0-3.29,5.7,4.11,4.11,0,0,0,1.19,3m12.71,21.54a5.44,5.44,0,0,1-2,1.93,4.68,4.68,0,0,1-2.26.73,2.27,2.27,0,0,1-2-1.29,9.64,9.64,0,0,1-.71-4.31c0-3.61.48-6.08,1.42-7.41s2.81-2,5.56-2Z" transform="translate(-30.69 -168.05)"/><path d="M492.12,248.69a14.11,14.11,0,0,0,11.17-5.46q4.56-5.46,4.56-14c0-5.69-1.52-10.34-4.56-14a14.17,14.17,0,0,0-22.35,0c-3,3.65-4.55,8.3-4.55,14s1.53,10.4,4.61,14.09a14,14,0,0,0,11.12,5.34m-3.9-33.83a3.89,3.89,0,0,1,3.9-3q2.88,0,4,3.29t1.13,14.14q0,10.73-1.26,14.39a3.87,3.87,0,0,1-3.89,3,4,4,0,0,1-3.94-3.07Q487,240.09,487,229.26t1.25-14.4" transform="translate(-30.69 -168.05)"/><path d="M455.38,238.39a3.47,3.47,0,0,0-3.51-3.51,3.75,3.75,0,0,0-2.82,1.17,4.91,4.91,0,0,0-1.13,3.5,7.85,7.85,0,0,0,3.32,6.3,15.08,15.08,0,0,0,9.67,2.93,13.74,13.74,0,0,0,9-3,11,11,0,0,0,3.94-8.9,12.08,12.08,0,0,0-2.53-7.82,14,14,0,0,0-7.57-4.5l-5.15-1.34a10.24,10.24,0,0,1-4.09-2.07,4.72,4.72,0,0,1-1.4-3.56,4.9,4.9,0,0,1,2.09-4.11,8.82,8.82,0,0,1,5.42-1.57,10,10,0,0,1,3.82.72,4.77,4.77,0,0,1,2.44,1.88,3.12,3.12,0,0,0-2.14,1.17,3.64,3.64,0,0,0-1,2.44,3.65,3.65,0,0,0,6.43,2.33,5.14,5.14,0,0,0,1.08-3.44,6,6,0,0,0-3.2-5.27,14.33,14.33,0,0,0-7.72-2,12.89,12.89,0,0,0-8,2.64,10.51,10.51,0,0,0-4.29,8.9A12.27,12.27,0,0,0,450,228.1a11.66,11.66,0,0,0,7.12,4.9l4.57,1.25a17.31,17.31,0,0,1,5,2.17,4.86,4.86,0,0,1,2.06,4.09,5.17,5.17,0,0,1-2.4,4.52,8.94,8.94,0,0,1-5.15,1.44,13.44,13.44,0,0,1-6.18-1.34c-1.76-.9-2.79-2-3.11-3.18a3.21,3.21,0,0,0,2.45-1.06,3.46,3.46,0,0,0,1-2.5" transform="translate(-30.69 -168.05)"/><path d="M302,246c-.57,0-.86.33-.86,1a1,1,0,0,0,.26.74.83.83,0,0,0,.6.27c1.2-.1,2.27-.17,3.26-.22s2.64-.07,5-.07l24.95.29c.54,0,1.42.06,2.65.19s1.95.18,2.17.18c.54,0,.82-.4.82-1.2v-2.89c0-1.19,0-2.8.11-4.84s.19-4.19.32-6.47a1.45,1.45,0,0,0-.19-.6.75.75,0,0,0-.73-.36.85.85,0,0,0-.79.36,1.17,1.17,0,0,0-.21.6c0,4-.67,7.16-2,9.38a6.31,6.31,0,0,1-5.73,3.34H318.25V217.47h6a4.18,4.18,0,0,1,3.69,2,10.42,10.42,0,0,1,1.33,5.75c0,.67.22,1,.67,1s.72-.34.72-1-.06-1.74-.09-2.79-.05-3.06-.05-6c0-1.63,0-3.44.07-5.43s.07-3.13.07-3.42q0-1-.72-1c-.45,0-.67.32-.67,1a9.93,9.93,0,0,1-1.38,5.73,4.23,4.23,0,0,1-3.64,2h-6V189.18h11.28a6.3,6.3,0,0,1,5.77,3.35c1.32,2.24,2,5.36,2,9.39a.89.89,0,0,0,1,1c.61,0,.92-.34.92-1-.1-1.51-.2-3.33-.3-5.48s-.14-4.09-.14-5.83v-2.83c0-.8-.28-1.2-.86-1.2l-2.65.19c-.81.06-1.51.1-2.13.1l-22.82.29c-2.22,0-3.94,0-5.18-.11s-2.27-.12-3.11-.18c-.57,0-.86.33-.86,1a1,1,0,0,0,.26.75.83.83,0,0,0,.6.27h6.36V246Z" transform="translate(-30.69 -168.05)"/><path d="M343.45,246c-.58,0-.87.33-.87,1a1,1,0,0,0,.27.74.8.8,0,0,0,.6.27c1.06-.1,2-.17,2.93-.22s2.52-.07,4.88-.07h5.53c.93,0,2.24,0,3.9.09s3,.13,3.9.2c.58,0,.86-.34.86-1a1,1,0,0,0-.26-.75.79.79,0,0,0-.6-.26l-5.88.05V187.87c0-.81-.28-1.21-.86-1.21-.19,0-.82.07-1.88.2a23.54,23.54,0,0,1-2.84.19c-.63,0-2,0-4-.07s-3.92-.1-5.68-.16c-.58,0-.87.34-.87,1a1,1,0,0,0,.27.74.8.8,0,0,0,.6.27h5.88V246Z" transform="translate(-30.69 -168.05)"/><path d="M382,246c-.57,0-.86.33-.86,1a1,1,0,0,0,.26.74.83.83,0,0,0,.6.27c1.19-.1,2.27-.17,3.25-.22s2.66-.07,5-.07h6c2.19,0,3.91,0,5.15.09s2.29.13,3.13.2c.58,0,.86-.34.86-1a1,1,0,0,0-.26-.75.82.82,0,0,0-.6-.26h-6.35V222.56h1.15q10.06,0,15.5-4.94,5.19-4.69,5.2-12.86T414.87,192q-5.4-4.78-15.5-4.79h-9.09c-2.21,0-3.94,0-5.17-.11s-2.27-.12-3.11-.18c-.57,0-.86.33-.86,1a1,1,0,0,0,.26.75.83.83,0,0,0,.6.27h6.35V246Zm16.22-56.77h3.08q4.71,0,6.5,3.55,1.62,3.33,1.63,12,0,8.91-1.68,12.32c-1.13,2.28-3.27,3.42-6.45,3.42h-3.08Z" transform="translate(-30.69 -168.05)"/><path d="M286.71,235c-.42,0-.64.13-.69.4a4,4,0,0,0-.08.6,4.21,4.21,0,0,1-.86,2.6,3,3,0,0,1-2,1.3,20.7,20.7,0,0,0-5.24-4.18,16.67,16.67,0,0,0-7.71-1.69q-9.37,0-15.87,8.61-6.69,8.85-6.69,22.52t6.74,22.57q6.45,8.56,15.82,8.56a17.54,17.54,0,0,0,7.75-1.59,16.69,16.69,0,0,0,5.35-4.23,3.23,3.23,0,0,1,1.89,1.46,4.18,4.18,0,0,1,.84,2.39,1.8,1.8,0,0,0,.15.74.62.62,0,0,0,.62.31.88.88,0,0,0,.82-.38,1.26,1.26,0,0,0,.1-.58v-19c0-.71-.28-1.06-.82-1.06s-.87.35-.87,1.06q0,8.13-4.35,13.35A13.46,13.46,0,0,1,270.84,294q-7.06,0-9.65-6.11t-2.57-22.71q0-16.59,2.57-22.71t9.65-6.1a13.35,13.35,0,0,1,10.73,5.38A20.28,20.28,0,0,1,285.94,255a1.49,1.49,0,0,0,.15.72.75.75,0,0,0,.72.34c.54,0,.82-.35.82-1.06V236a1.08,1.08,0,0,0-.24-.77,1,1,0,0,0-.68-.18" transform="translate(-30.69 -168.05)"/><path d="M515.61,254.44a4.85,4.85,0,1,0-3.43-1.42,4.72,4.72,0,0,0,3.43,1.42" transform="translate(-30.69 -168.05)"/><path d="M320.17,262.88a14.17,14.17,0,0,0-22.37,0c-3,3.63-4.53,8.3-4.53,14s1.53,10.41,4.61,14.1a14.2,14.2,0,0,0,22.29-.12q4.59-5.46,4.58-14c0-5.67-1.52-10.34-4.58-14m-7.27,28.36a3.88,3.88,0,0,1-3.9,3c-1.93,0-3.24-1-3.95-3.07q-1.2-3.51-1.2-14.35t1.25-14.39a3.86,3.86,0,0,1,3.9-3c1.93,0,3.26,1.09,4,3.28s1.13,6.9,1.13,14.13-.41,12-1.25,14.39" transform="translate(-30.69 -168.05)"/><path d="M385,295.28h5.54a29.82,29.82,0,0,1,3.22.24c.29,0,.69.05,1.21.05s.86-.34.86-1a1,1,0,0,0-.26-.75.91.91,0,0,0-.6-.27h-2.5v-15.8a33.06,33.06,0,0,1,2-12.18c1.33-3.34,2.86-5,4.59-5a2.19,2.19,0,0,1,2.31,1.44,19.69,19.69,0,0,1,.53,5.67v25.89h-2.5q-.87,0-.87,1a1,1,0,0,0,.27.74.84.84,0,0,0,.6.27c.26,0,.8-.05,1.63-.14a23.61,23.61,0,0,1,2.79-.15h5.54c.55,0,1.36.05,2.45.15s1.75.14,2,.14c.57,0,.86-.34.86-1a1,1,0,0,0-.27-.75.83.83,0,0,0-.59-.27h-2.51v-15.8a32.62,32.62,0,0,1,2-12.18c1.31-3.34,2.85-5,4.58-5a2.21,2.21,0,0,1,2.32,1.44,19.8,19.8,0,0,1,.52,5.67v25.89h-2.5q-.87,0-.87,1a1,1,0,0,0,.26.74.91.91,0,0,0,.61.27c.26,0,.8-.05,1.64-.14a23.37,23.37,0,0,1,2.79-.15h5.53c.93,0,2.23,0,3.89.09s3,.13,3.9.2c.58,0,.87-.34.87-1a1,1,0,0,0-.27-.75.84.84,0,0,0-.6-.27h-5.87V269a14,14,0,0,0-2-7.93q-2.46-3.61-7.6-3.61a8.31,8.31,0,0,0-6.16,2.5,14.06,14.06,0,0,0-3.27,6.12,10.81,10.81,0,0,0-2.74-6.16,8.87,8.87,0,0,0-6.64-2.46,8.42,8.42,0,0,0-6.12,2.46,12.56,12.56,0,0,0-3.11,5.43v-6.1c0-.8-.3-1.21-.87-1.21-.2,0-.83.07-1.88.19a23.73,23.73,0,0,1-2.84.2c-.64,0-2,0-4-.08s-3.92-.1-5.68-.17q-.87,0-.87,1a1,1,0,0,0,.27.74.8.8,0,0,0,.6.27h5.87v33.38h-8.32V269a14,14,0,0,0-2-7.93c-1.63-2.41-4.17-3.61-7.6-3.61a8.31,8.31,0,0,0-6.16,2.5,14.07,14.07,0,0,0-3.28,6.12,10.74,10.74,0,0,0-2.74-6.16,8.88,8.88,0,0,0-6.65-2.46,8.4,8.4,0,0,0-6.12,2.46,12.59,12.59,0,0,0-3.13,5.43v-6.1c0-.8-.29-1.21-.87-1.21-.19,0-.81.07-1.88.19a23.73,23.73,0,0,1-2.84.2c-.64,0-2,0-4-.08s-3.92-.1-5.69-.17q-.87,0-.87,1a1,1,0,0,0,.27.74.82.82,0,0,0,.6.27h5.88v33.38H321.8q-.87,0-.87,1a1,1,0,0,0,.27.74.85.85,0,0,0,.6.27c1.06-.1,2-.17,2.94-.22s2.52-.07,4.86-.07h5.54a30,30,0,0,1,3.23.24c.3,0,.69.05,1.21.05s.86-.34.86-1a1,1,0,0,0-.26-.75.87.87,0,0,0-.6-.27h-2.51v-15.8a32.84,32.84,0,0,1,2-12.18c1.33-3.34,2.86-5,4.6-5A2.2,2.2,0,0,1,346,262a19.22,19.22,0,0,1,.54,5.67v25.89H344c-.59,0-.87.34-.87,1a1,1,0,0,0,.27.74.82.82,0,0,0,.6.27c.26,0,.8-.05,1.64-.14a23.61,23.61,0,0,1,2.79-.15H354q.81,0,2.46.15c1.09.09,1.74.14,2,.14.58,0,.87-.34.87-1a1,1,0,0,0-.26-.75.9.9,0,0,0-.61-.27h-2.5v-15.8a33.06,33.06,0,0,1,2-12.18c1.33-3.34,2.87-5,4.6-5a2.21,2.21,0,0,1,2.32,1.44,20.19,20.19,0,0,1,.52,5.67v25.89h-2.51c-.57,0-.85.34-.85,1a1,1,0,0,0,.26.74.85.85,0,0,0,.59.27c.27,0,.81-.05,1.65-.14a23.61,23.61,0,0,1,2.79-.15h5.53c.92,0,2.22,0,3.88.09l4.57-.06c.92,0,2.14,0,3.72,0" transform="translate(-30.69 -168.05)"/><path d="M536.63,258.43V242.25a1.7,1.7,0,0,0-.15-.74c-.9-7.1-9.58-6.6-9.58-6.6a8.74,8.74,0,0,0-7.71,4.51c-1.43,3.12,0,3.31,0,3.31,1.43,0,1.43-2.14,1.43-2.14a4.08,4.08,0,0,1,3.88-3.37,2.77,2.77,0,0,1,2.79,2.59v2a2.81,2.81,0,0,0,0,.44v16.13l-11,0c-2.35,0-4.64,0-5.52-.05-2-.05-3.92-.1-5.68-.17-.58,0-.86.34-.86,1a1,1,0,0,0,.26.74.82.82,0,0,0,.6.27H511v33.39h-6.44V269a14,14,0,0,0-2-7.93c-1.63-2.4-4.17-3.61-7.59-3.61a8.4,8.4,0,0,0-6.12,2.46,12.69,12.69,0,0,0-3.13,5.43v-6.11c0-.79-.28-1.2-.86-1.2-.2,0-.82.07-1.87.19a23.87,23.87,0,0,1-2.84.2c-.65,0-2,0-4-.08s-3.92-.1-5.68-.17c-.56,0-.86.34-.86,1a1,1,0,0,0,.26.74.82.82,0,0,0,.6.27h5.87v33.39l-5.33.09h0l-4.78.07h-1.81c-.51,0-1,0-1.23-.35a4.71,4.71,0,0,1-.33-2.12V259.19q0-1.2-.87-1.2c-.19,0-.82.07-1.88.19a23.59,23.59,0,0,1-2.84.2c-.64,0-2,0-4-.08s-3.92-.1-5.68-.17q-.87,0-.87,1a1,1,0,0,0,.27.74.83.83,0,0,0,.6.27h5.87V276a32.8,32.8,0,0,1-2,12.18c-1.32,3.35-2.86,5-4.59,5a2.2,2.2,0,0,1-2.31-1.44A19.36,19.36,0,0,1,444,286V259.19c0-.79-.29-1.2-.86-1.2-.19,0-.82.07-1.88.19a23.73,23.73,0,0,1-2.84.2c-.64,0-2,0-4-.08s-3.91-.1-5.68-.17c-.58,0-.86.34-.86,1a1,1,0,0,0,.26.74.8.8,0,0,0,.6.27h5.87v24.59a14,14,0,0,0,2,7.94c1.64,2.4,4.17,3.6,7.61,3.6a8.37,8.37,0,0,0,6.1-2.46,12.63,12.63,0,0,0,3.13-5.43l.37-1.24v8.31l17.58-.14h0l2,0c.89-.05,2.52-.07,4.86-.07h5.53a24.24,24.24,0,0,1,3,.15c.76.09,1.24.14,1.43.14q.87,0,.87-1a1,1,0,0,0-.26-.74.87.87,0,0,0-.61-.26h-2.5V277.74a33,33,0,0,1,2-12.18c1.34-3.34,2.87-5,4.6-5a2.2,2.2,0,0,1,2.31,1.44,19.8,19.8,0,0,1,.52,5.67v25.9h-2.5c-.58,0-.85.34-.85,1a1,1,0,0,0,.25.75.87.87,0,0,0,.6.27c.23,0,.72-.05,1.49-.14a23.58,23.58,0,0,1,2.94-.15h5.53l1.9,0,6.56,0h7.35c.93,0,2.24,0,3.9.09s3,.13,3.9.2c.58,0,.86-.34.86-1a1,1,0,0,0-.26-.74.86.86,0,0,0-.6-.26l-5.87,0V260.44h6.91v26.61c0,3.11.83,5.37,2.46,6.77s4.11,2.12,7.41,2.12a8.56,8.56,0,0,0,6.35-2.38,6.16,6.16,0,0,0,1.92-4.41,1,1,0,0,0-.3-.74,1,1,0,0,0-.66-.31c-.7,0-1.11.5-1.2,1.48a5,5,0,0,1-1.26,2.76,3.23,3.23,0,0,1-2.54,1.29,2.44,2.44,0,0,1-2.14-.89,5.27,5.27,0,0,1-.65-3.05V260.45c1.5,0,3.23,0,4.86,0h8.87l12.36,34-4.87,13.81a29.26,29.26,0,0,1-3.46,7.23c-1.41,1.94-2.89,2.92-4.42,2.92a1.39,1.39,0,0,1-1.07-.48,3.12,3.12,0,0,0,1.42-1.25,3.93,3.93,0,0,0,.57-2.17,3.72,3.72,0,0,0-1.21-2.9,4,4,0,0,0-2.74-1.09,3.76,3.76,0,0,0-2.89,1.21,4.62,4.62,0,0,0-1.11,3.26,4.81,4.81,0,0,0,1.95,3.88,7.58,7.58,0,0,0,4.89,1.56c2.63,0,4.88-1.38,6.78-4.14q2.12-3.12,4.86-10.92l15.92-45.17h5.77c.55,0,.83-.34.83-1s-.28-1-.83-1l-1.92.15c-1.25.1-2.89.15-4.9.15h-.59c-.92,0-2,0-3.31-.1s-2.29-.13-3-.2c-.58,0-.88.34-.88,1a1,1,0,0,0,.28.74.82.82,0,0,0,.6.27l5.45-.05-7.18,20.36-7.34-20.31h4.3c.55,0,.82-.34.82-1s-.27-1-.82-1c-1,.1-1.85.17-2.66.22s-2.36.08-4.6.08h-3.9c-.93,0-2.23,0-3.89-.1Z" transform="translate(-30.69 -168.05)"/></svg>